<mxfile host="Electron" agent="Mozilla/5.0 (Windows NT 10.0; Win64; x64) AppleWebKit/537.36 (KHTML, like Gecko) draw.io/26.0.4 Chrome/128.0.6613.186 Electron/32.2.5 Safari/537.36" version="26.0.4">
  <diagram name="Seite-1" id="ofgqTzuYCCNhGxFDNL8x">
    <mxGraphModel dx="1687" dy="993" grid="1" gridSize="10" guides="1" tooltips="1" connect="1" arrows="1" fold="1" page="1" pageScale="1" pageWidth="827" pageHeight="1169" math="0" shadow="0">
      <root>
        <mxCell id="0" />
        <mxCell id="1" parent="0" />
        <mxCell id="9LVpvohVaGwKZjO-ZYmQ-1" value="&amp;lt;default-style style:family=&quot;paragraph&quot;&amp;gt;&lt;div&gt;&lt;b&gt;&lt;font style=&quot;color: rgb(51, 51, 255);&quot;&gt;XYZ&lt;/font&gt;&lt;/b&gt;&lt;br&gt;&amp;lt;/default-style&amp;gt;&lt;/div&gt;" style="rounded=0;whiteSpace=wrap;html=1;fillColor=#f5f5f5;strokeColor=#666666;fontColor=#333333;" vertex="1" parent="1">
          <mxGeometry x="440" y="40" width="260" height="60" as="geometry" />
        </mxCell>
        <mxCell id="9LVpvohVaGwKZjO-ZYmQ-5" style="edgeStyle=orthogonalEdgeStyle;rounded=0;orthogonalLoop=1;jettySize=auto;html=1;entryX=0.5;entryY=1;entryDx=0;entryDy=0;" edge="1" parent="1" source="9LVpvohVaGwKZjO-ZYmQ-2" target="9LVpvohVaGwKZjO-ZYmQ-3">
          <mxGeometry relative="1" as="geometry" />
        </mxCell>
        <mxCell id="9LVpvohVaGwKZjO-ZYmQ-2" value="&amp;lt;p text:style-name=&quot;P3&quot;&amp;gt;" style="rounded=0;whiteSpace=wrap;html=1;" vertex="1" parent="1">
          <mxGeometry x="80" y="380" width="260" height="40" as="geometry" />
        </mxCell>
        <mxCell id="9LVpvohVaGwKZjO-ZYmQ-8" style="edgeStyle=orthogonalEdgeStyle;rounded=0;orthogonalLoop=1;jettySize=auto;html=1;entryX=0;entryY=0.5;entryDx=0;entryDy=0;exitX=0.5;exitY=0;exitDx=0;exitDy=0;dashed=1;" edge="1" parent="1" source="9LVpvohVaGwKZjO-ZYmQ-3" target="9LVpvohVaGwKZjO-ZYmQ-1">
          <mxGeometry relative="1" as="geometry" />
        </mxCell>
        <mxCell id="9LVpvohVaGwKZjO-ZYmQ-9" style="edgeStyle=orthogonalEdgeStyle;rounded=0;orthogonalLoop=1;jettySize=auto;html=1;entryX=0;entryY=0.5;entryDx=0;entryDy=0;" edge="1" parent="1" source="9LVpvohVaGwKZjO-ZYmQ-3" target="9LVpvohVaGwKZjO-ZYmQ-6">
          <mxGeometry relative="1" as="geometry" />
        </mxCell>
        <mxCell id="9LVpvohVaGwKZjO-ZYmQ-3" value="&amp;lt;style:style&lt;div&gt;style:name=&quot;P3&quot;&lt;/div&gt;&lt;div&gt;style:parent-style-name=&quot;Table_20_Contents&quot;&lt;/div&gt;&lt;div&gt;style:family=&quot;paragraph&quot;&amp;gt;&lt;/div&gt;" style="rounded=0;whiteSpace=wrap;html=1;" vertex="1" parent="1">
          <mxGeometry x="80" y="260" width="260" height="80" as="geometry" />
        </mxCell>
        <mxCell id="9LVpvohVaGwKZjO-ZYmQ-10" style="edgeStyle=orthogonalEdgeStyle;rounded=0;orthogonalLoop=1;jettySize=auto;html=1;exitX=0.5;exitY=0;exitDx=0;exitDy=0;entryX=0.5;entryY=1;entryDx=0;entryDy=0;" edge="1" parent="1" source="9LVpvohVaGwKZjO-ZYmQ-6" target="9LVpvohVaGwKZjO-ZYmQ-7">
          <mxGeometry relative="1" as="geometry" />
        </mxCell>
        <mxCell id="9LVpvohVaGwKZjO-ZYmQ-12" style="edgeStyle=orthogonalEdgeStyle;rounded=0;orthogonalLoop=1;jettySize=auto;html=1;exitX=1;exitY=0.5;exitDx=0;exitDy=0;entryX=1;entryY=0.5;entryDx=0;entryDy=0;dashed=1;" edge="1" parent="1" source="9LVpvohVaGwKZjO-ZYmQ-6" target="9LVpvohVaGwKZjO-ZYmQ-1">
          <mxGeometry relative="1" as="geometry">
            <mxPoint x="700" y="40" as="targetPoint" />
            <Array as="points">
              <mxPoint x="720" y="300" />
              <mxPoint x="720" y="70" />
            </Array>
          </mxGeometry>
        </mxCell>
        <mxCell id="9LVpvohVaGwKZjO-ZYmQ-6" value="&amp;lt;style:style&lt;div&gt;style:name=&quot;&lt;span style=&quot;background-color: transparent; color: light-dark(rgb(0, 0, 0), rgb(255, 255, 255));&quot;&gt;Table_20_Contents&lt;/span&gt;&lt;span style=&quot;background-color: transparent; color: light-dark(rgb(0, 0, 0), rgb(255, 255, 255));&quot;&gt;&quot;&lt;/span&gt;&lt;/div&gt;&lt;div&gt;style:parent-style-name=&quot;Standard&quot;&lt;/div&gt;&lt;div&gt;style:family=&quot;paragraph&quot;&amp;gt;&lt;/div&gt;" style="rounded=0;whiteSpace=wrap;html=1;" vertex="1" parent="1">
          <mxGeometry x="440" y="260" width="260" height="80" as="geometry" />
        </mxCell>
        <mxCell id="9LVpvohVaGwKZjO-ZYmQ-11" style="edgeStyle=orthogonalEdgeStyle;rounded=0;orthogonalLoop=1;jettySize=auto;html=1;entryX=0.5;entryY=1;entryDx=0;entryDy=0;exitX=0.5;exitY=0;exitDx=0;exitDy=0;dashed=1;" edge="1" parent="1" source="9LVpvohVaGwKZjO-ZYmQ-7" target="9LVpvohVaGwKZjO-ZYmQ-1">
          <mxGeometry relative="1" as="geometry" />
        </mxCell>
        <mxCell id="9LVpvohVaGwKZjO-ZYmQ-7" value="&amp;lt;style:style&lt;div&gt;style:name=&quot;Standard&lt;span style=&quot;background-color: transparent; color: light-dark(rgb(0, 0, 0), rgb(255, 255, 255));&quot;&gt;&quot;&lt;/span&gt;&lt;/div&gt;&lt;div&gt;style:family=&quot;paragraph&quot;&amp;gt;&lt;/div&gt;" style="rounded=0;whiteSpace=wrap;html=1;" vertex="1" parent="1">
          <mxGeometry x="440" y="140" width="260" height="80" as="geometry" />
        </mxCell>
        <mxCell id="9LVpvohVaGwKZjO-ZYmQ-15" value="" style="shape=flexArrow;endArrow=classic;html=1;rounded=0;" edge="1" parent="1">
          <mxGeometry width="50" height="50" relative="1" as="geometry">
            <mxPoint x="430" y="430" as="sourcePoint" />
            <mxPoint x="430" y="500" as="targetPoint" />
          </mxGeometry>
        </mxCell>
        <mxCell id="9LVpvohVaGwKZjO-ZYmQ-16" value="&amp;lt;default-style style:family=&quot;paragraph&quot;&amp;gt;&lt;div&gt;&lt;b&gt;&lt;font style=&quot;color: rgb(51, 51, 255);&quot;&gt;XYZ&lt;/font&gt;&lt;/b&gt;&lt;br&gt;&amp;lt;/default-style&amp;gt;&lt;/div&gt;" style="rounded=0;whiteSpace=wrap;html=1;fillColor=#f5f5f5;fontColor=#333333;strokeColor=#666666;" vertex="1" parent="1">
          <mxGeometry x="440" y="600" width="260" height="60" as="geometry" />
        </mxCell>
        <mxCell id="9LVpvohVaGwKZjO-ZYmQ-17" style="edgeStyle=orthogonalEdgeStyle;rounded=0;orthogonalLoop=1;jettySize=auto;html=1;entryX=0.5;entryY=1;entryDx=0;entryDy=0;" edge="1" parent="1" source="9LVpvohVaGwKZjO-ZYmQ-18" target="9LVpvohVaGwKZjO-ZYmQ-21">
          <mxGeometry relative="1" as="geometry" />
        </mxCell>
        <mxCell id="9LVpvohVaGwKZjO-ZYmQ-18" value="&amp;lt;p text:style-name=&quot;P3&quot;&amp;gt;" style="rounded=0;whiteSpace=wrap;html=1;" vertex="1" parent="1">
          <mxGeometry x="80" y="1060" width="260" height="40" as="geometry" />
        </mxCell>
        <mxCell id="9LVpvohVaGwKZjO-ZYmQ-19" style="edgeStyle=orthogonalEdgeStyle;rounded=0;orthogonalLoop=1;jettySize=auto;html=1;entryX=0;entryY=0.5;entryDx=0;entryDy=0;exitX=0.5;exitY=0;exitDx=0;exitDy=0;dashed=1;" edge="1" parent="1" source="9LVpvohVaGwKZjO-ZYmQ-21" target="9LVpvohVaGwKZjO-ZYmQ-16">
          <mxGeometry relative="1" as="geometry" />
        </mxCell>
        <mxCell id="9LVpvohVaGwKZjO-ZYmQ-20" style="edgeStyle=orthogonalEdgeStyle;rounded=0;orthogonalLoop=1;jettySize=auto;html=1;entryX=0;entryY=0.5;entryDx=0;entryDy=0;" edge="1" parent="1" source="9LVpvohVaGwKZjO-ZYmQ-21" target="9LVpvohVaGwKZjO-ZYmQ-24">
          <mxGeometry relative="1" as="geometry" />
        </mxCell>
        <mxCell id="9LVpvohVaGwKZjO-ZYmQ-21" value="&amp;lt;style:style&lt;div&gt;style:name=&quot;P3&quot;&lt;/div&gt;&lt;div&gt;style:parent-style-name=&quot;Table_20_Contents&quot;&lt;/div&gt;&lt;div&gt;style:family=&quot;paragraph&quot;&amp;gt;&lt;/div&gt;" style="rounded=0;whiteSpace=wrap;html=1;" vertex="1" parent="1">
          <mxGeometry x="80" y="940" width="260" height="80" as="geometry" />
        </mxCell>
        <mxCell id="9LVpvohVaGwKZjO-ZYmQ-22" style="edgeStyle=orthogonalEdgeStyle;rounded=0;orthogonalLoop=1;jettySize=auto;html=1;exitX=0.5;exitY=0;exitDx=0;exitDy=0;entryX=0.5;entryY=1;entryDx=0;entryDy=0;" edge="1" parent="1" source="9LVpvohVaGwKZjO-ZYmQ-24" target="9LVpvohVaGwKZjO-ZYmQ-26">
          <mxGeometry relative="1" as="geometry" />
        </mxCell>
        <mxCell id="9LVpvohVaGwKZjO-ZYmQ-34" style="edgeStyle=orthogonalEdgeStyle;rounded=0;orthogonalLoop=1;jettySize=auto;html=1;dashed=1;" edge="1" parent="1" source="9LVpvohVaGwKZjO-ZYmQ-24">
          <mxGeometry relative="1" as="geometry">
            <mxPoint x="700" y="630" as="targetPoint" />
            <Array as="points">
              <mxPoint x="740" y="980" />
              <mxPoint x="740" y="630" />
            </Array>
          </mxGeometry>
        </mxCell>
        <mxCell id="9LVpvohVaGwKZjO-ZYmQ-24" value="&amp;lt;style:style&lt;div&gt;style:name=&quot;&lt;span style=&quot;background-color: transparent; color: light-dark(rgb(0, 0, 0), rgb(255, 255, 255));&quot;&gt;Table_20_Contents&lt;/span&gt;&lt;span style=&quot;background-color: transparent; color: light-dark(rgb(0, 0, 0), rgb(255, 255, 255));&quot;&gt;&quot;&lt;/span&gt;&lt;/div&gt;&lt;div&gt;style:parent-style-name=&quot;Standard&quot;&lt;/div&gt;&lt;div&gt;style:family=&quot;paragraph&quot;&amp;gt;&lt;/div&gt;" style="rounded=0;whiteSpace=wrap;html=1;" vertex="1" parent="1">
          <mxGeometry x="440" y="940" width="260" height="80" as="geometry" />
        </mxCell>
        <mxCell id="9LVpvohVaGwKZjO-ZYmQ-30" style="edgeStyle=orthogonalEdgeStyle;rounded=0;orthogonalLoop=1;jettySize=auto;html=1;entryX=0.5;entryY=1;entryDx=0;entryDy=0;strokeWidth=2;fillColor=#f8cecc;strokeColor=#b85450;" edge="1" parent="1" source="9LVpvohVaGwKZjO-ZYmQ-26" target="9LVpvohVaGwKZjO-ZYmQ-27">
          <mxGeometry relative="1" as="geometry" />
        </mxCell>
        <mxCell id="9LVpvohVaGwKZjO-ZYmQ-33" style="edgeStyle=orthogonalEdgeStyle;rounded=0;orthogonalLoop=1;jettySize=auto;html=1;entryX=1;entryY=0.5;entryDx=0;entryDy=0;dashed=1;" edge="1" parent="1" source="9LVpvohVaGwKZjO-ZYmQ-26" target="9LVpvohVaGwKZjO-ZYmQ-16">
          <mxGeometry relative="1" as="geometry">
            <Array as="points">
              <mxPoint x="720" y="860" />
              <mxPoint x="720" y="630" />
            </Array>
          </mxGeometry>
        </mxCell>
        <mxCell id="9LVpvohVaGwKZjO-ZYmQ-26" value="&amp;lt;style:style&lt;div&gt;style:name=&quot;Standard&lt;span style=&quot;background-color: transparent; color: light-dark(rgb(0, 0, 0), rgb(255, 255, 255));&quot;&gt;&quot;&lt;br&gt;&lt;/span&gt;&lt;font style=&quot;color: rgb(204, 0, 0);&quot;&gt;style:parent-style-name=&quot;x_paragraph&quot;&lt;/font&gt;&lt;span style=&quot;background-color: transparent; color: light-dark(rgb(0, 0, 0), rgb(255, 255, 255));&quot;&gt;&lt;br&gt;&lt;/span&gt;&lt;/div&gt;&lt;div&gt;style:family=&quot;paragraph&quot;&amp;gt;&lt;/div&gt;" style="rounded=0;whiteSpace=wrap;html=1;" vertex="1" parent="1">
          <mxGeometry x="440" y="820" width="260" height="80" as="geometry" />
        </mxCell>
        <mxCell id="9LVpvohVaGwKZjO-ZYmQ-31" style="edgeStyle=orthogonalEdgeStyle;rounded=0;orthogonalLoop=1;jettySize=auto;html=1;exitX=0.5;exitY=0;exitDx=0;exitDy=0;entryX=0.5;entryY=1;entryDx=0;entryDy=0;dashed=1;" edge="1" parent="1" source="9LVpvohVaGwKZjO-ZYmQ-27" target="9LVpvohVaGwKZjO-ZYmQ-16">
          <mxGeometry relative="1" as="geometry" />
        </mxCell>
        <mxCell id="9LVpvohVaGwKZjO-ZYmQ-27" value="&lt;font style=&quot;color: rgb(204, 0, 0);&quot;&gt;&amp;lt;style:style&lt;/font&gt;&lt;div&gt;&lt;font style=&quot;color: rgb(204, 0, 0);&quot;&gt;style:name=&quot;x_paragraph&lt;span style=&quot;background-color: transparent;&quot;&gt;&quot;&lt;/span&gt;&lt;/font&gt;&lt;/div&gt;&lt;div&gt;&lt;font style=&quot;color: rgb(204, 0, 0);&quot;&gt;style:family=&quot;paragraph&quot;&amp;gt;&lt;br&gt;&lt;b style=&quot;color: rgb(0, 0, 0);&quot;&gt;&lt;font style=&quot;color: rgb(51, 51, 255);&quot;&gt;XYZ&lt;/font&gt;&lt;/b&gt;&lt;br&gt;&lt;/font&gt;&lt;/div&gt;&lt;div&gt;&lt;font style=&quot;color: rgb(204, 0, 0);&quot;&gt;&amp;lt;/style_style&amp;gt;&lt;/font&gt;&lt;/div&gt;" style="rounded=0;whiteSpace=wrap;html=1;" vertex="1" parent="1">
          <mxGeometry x="440" y="700" width="260" height="80" as="geometry" />
        </mxCell>
      </root>
    </mxGraphModel>
  </diagram>
</mxfile>
